0
SECTION
2
HEADER
9
$INSUNITS
70
4
0
ENDSEC
0
SECTION
2
ENTITIES
0
LWPOLYLINE
8
CUT
90
100
70
1
10
190.59450
20
0.62948
10
186.41106
20
-0.35344
10
182.19383
20
-1.32268
10
177.97671
20
-2.26949
10
173.75964
20
-3.19318
10
169.54257
20
-4.09311
10
165.32538
20
-4.96871
10
161.10795
20
-5.81968
10
156.89027
20
-6.64577
10
152.67229
20
-7.44672
10
148.45408
20
-8.22236
10
144.23626
20
-8.97211
10
140.01947
20
-9.69386
10
135.80383
20
-10.38514
10
131.58928
20
-11.04354
10
127.37570
20
-11.66672
10
123.16245
20
-12.25259
10
118.94881
20
-12.80063
10
114.73457
20
-13.31071
10
110.51973
20
-13.78279
10
106.30440
20
-14.21672
10
102.08941
20
-14.61198
10
97.87575
20
-14.96600
10
93.66367
20
-15.27540
10
89.45310
20
-15.53688
10
85.24372
20
-15.74710
10
81.03347
20
-15.90351
10
76.81987
20
-16.00847
10
72.60226
20
-16.06626
10
68.38072
20
-16.08115
10
64.15616
20
-16.05738
10
59.93503
20
-15.99705
10
55.72498
20
-15.88667
10
51.52801
20
-15.70633
10
47.34383
20
-15.43590
10
43.17119
20
-15.05486
10
39.00309
20
-14.54388
10
34.83159
20
-13.89842
10
30.65827
20
-13.12075
10
26.49181
20
-12.20371
10
22.33677
20
-11.12322
10
18.19260
20
-9.85200
10
14.05825
20
-8.35816
10
12.06545
20
-7.51161
10
10.09036
20
-6.54360
10
8.17046
20
-5.42230
10
6.26319
20
-4.02211
10
4.69663
20
-2.60730
10
3.96072
20
-1.87796
10
3.28767
20
-1.10001
10
3.07890
20
-0.78787
10
3.10754
20
-0.74755
10
3.57463
20
-0.28924
10
3.96339
20
-0.01685
10
5.14963
20
0.49980
10
6.97049
20
0.96254
10
8.97264
20
1.38697
10
10.97049
20
1.73172
10
12.96445
20
1.98727
10
17.11555
20
2.34568
10
21.30511
20
2.62073
10
25.50381
20
2.82605
10
29.70908
20
2.96693
10
33.92201
20
3.05265
10
38.14223
20
3.09214
10
42.36936
20
3.09411
10
46.60250
20
3.06696
10
50.84076
20
3.01748
10
55.08385
20
2.95198
10
59.33166
20
2.87683
10
63.58367
20
2.79845
10
67.83769
20
2.72223
10
72.09151
20
2.64866
10
76.34468
20
2.57686
10
80.59720
20
2.50597
10
84.84915
20
2.43506
10
89.10086
20
2.36344
10
93.35268
20
2.29108
10
97.60468
20
2.21826
10
101.85685
20
2.14519
10
106.10917
20
2.07211
10
110.36157
20
1.99924
10
114.61393
20
1.92657
10
118.86623
20
1.85402
10
123.11850
20
1.78152
10
127.37072
20
1.70904
10
131.62293
20
1.63650
10
135.87515
20
1.56391
10
140.12737
20
1.49130
10
144.37961
20
1.41865
10
148.63187
20
1.34602
10
152.88412
20
1.27340
10
157.13637
20
1.20079
10
161.38862
20
1.12818
10
165.64086
20
1.05557
10
169.89311
20
0.98296
10
174.14535
20
0.91036
10
178.39760
20
0.83775
10
182.64984
20
0.76514
10
186.90209
20
0.69253
0
CIRCLE
8
CUT
10
63.75000
20
-6.62796
40
7.25000
0
ENDSEC
0
EOF
