0
SECTION
2
HEADER
9
$INSUNITS
70
4
0
ENDSEC
0
SECTION
2
ENTITIES
0
LWPOLYLINE
8
CUT
90
104
70
1
10
222.10140
20
-1.53328
10
218.74757
20
-2.28044
10
213.89017
20
-3.33816
10
209.03308
20
-4.37109
10
204.17645
20
-5.37831
10
199.32024
20
-6.35902
10
194.46441
20
-7.31246
10
189.60884
20
-8.23801
10
184.75344
20
-9.13530
10
179.89816
20
-10.00403
10
175.04299
20
-10.84391
10
170.18799
20
-11.65476
10
165.33379
20
-12.43592
10
160.48107
20
-13.18501
10
155.62999
20
-13.89919
10
150.78051
20
-14.57569
10
145.93256
20
-15.21183
10
141.08554
20
-15.80515
10
136.23872
20
-16.35507
10
131.39192
20
-16.86140
10
126.54510
20
-17.32410
10
121.69841
20
-17.74301
10
116.85267
20
-18.11754
10
112.00892
20
-18.44479
10
107.16746
20
-18.72087
10
102.32826
20
-18.94196
10
97.49107
20
-19.10426
10
92.65386
20
-19.20474
10
87.81412
20
-19.24609
10
82.97112
20
-19.23319
10
78.12488
20
-19.17098
10
73.27622
20
-19.06436
10
68.43157
20
-18.91580
10
63.59881
20
-18.70992
10
58.78023
20
-18.42381
10
53.97586
20
-18.03428
10
49.18479
20
-17.51759
10
44.40032
20
-16.85141
10
39.61459
20
-16.03052
10
34.82912
20
-15.05752
10
30.05274
20
-13.92398
10
25.29036
20
-12.60201
10
20.54188
20
-11.05997
10
15.80674
20
-9.26092
10
13.51510
20
-8.24285
10
11.24310
20
-7.08283
10
9.02867
20
-5.74046
10
6.83129
20
-4.07127
10
5.03732
20
-2.39699
10
4.18801
20
-1.52726
10
3.40229
20
-0.58846
10
3.11150
20
-0.13788
10
3.03842
20
0.01252
10
3.05131
20
0.13675
10
3.22598
20
0.37428
10
3.82511
20
0.94322
10
4.34300
20
1.29359
10
5.78720
20
1.89468
10
7.92764
20
2.40150
10
10.24877
20
2.85399
10
12.56434
20
3.21467
10
14.87460
20
3.47241
10
19.65586
20
3.80651
10
24.47427
20
4.04374
10
29.30070
20
4.20065
10
34.13269
20
4.28342
10
38.97145
20
4.30269
10
43.81677
20
4.26873
10
48.66840
20
4.19161
10
53.52558
20
4.08096
10
58.38753
20
3.94461
10
63.25404
20
3.78981
10
68.12512
20
3.62389
10
73.00036
20
3.45419
10
77.87764
20
3.28693
10
82.75476
20
3.12273
10
87.63125
20
2.96057
10
92.50711
20
2.79945
10
97.38240
20
2.63833
10
102.25744
20
2.47639
10
107.13258
20
2.31359
10
112.00790
20
2.15027
10
116.88337
20
1.98666
10
121.75900
20
1.82304
10
126.63471
20
1.65966
10
131.51038
20
1.49651
10
136.38600
20
1.33350
10
141.26158
20
1.17054
10
146.13713
20
1.00761
10
151.01265
20
0.84460
10
155.88818
20
0.68154
10
160.76372
20
0.51847
10
165.63927
20
0.35534
10
170.51484
20
0.19223
10
175.39041
20
0.02913
10
180.26598
20
-0.13395
10
185.14154
20
-0.29703
10
190.01710
20
-0.46011
10
194.89266
20
-0.62319
10
199.76822
20
-0.78627
10
204.64378
20
-0.94935
10
209.51934
20
-1.11243
10
214.39490
20
-1.27551
10
219.27045
20
-1.43859
0
CIRCLE
8
CUT
10
73.12500
20
-7.80473
40
7.25000
0
ENDSEC
0
EOF
