0
SECTION
2
HEADER
9
$INSUNITS
70
4
0
ENDSEC
0
SECTION
2
ENTITIES
0
LWPOLYLINE
8
CUT
90
121
70
1
10
234.48165
20
3.37597
10
234.41572
20
3.35989
10
232.04672
20
2.78334
10
229.67931
20
2.20984
10
227.31531
20
1.64118
10
222.58512
20
0.52042
10
217.85708
20
-0.57398
10
213.12831
20
-1.64370
10
208.39922
20
-2.68970
10
203.67037
20
-3.71154
10
198.94189
20
-4.70834
10
194.21375
20
-5.67929
10
189.48590
20
-6.62369
10
184.75824
20
-7.54090
10
180.03064
20
-8.43058
10
175.30309
20
-9.29243
10
170.57555
20
-10.12618
10
165.84810
20
-10.93163
10
161.12135
20
-11.70817
10
156.39598
20
-12.45343
10
151.67213
20
-13.16469
10
146.94978
20
-13.83922
10
142.22884
20
-14.47441
10
137.50868
20
-15.06789
10
132.78860
20
-15.61907
10
128.06839
20
-16.12780
10
123.34803
20
-16.59403
10
118.62767
20
-17.01758
10
113.90812
20
-17.39790
10
109.19041
20
-17.73215
10
104.47483
20
-18.01653
10
99.76134
20
-18.24734
10
95.04969
20
-18.42086
10
90.33782
20
-18.53417
10
85.62323
20
-18.58988
10
80.90521
20
-18.59275
10
76.18380
20
-18.54760
10
71.45984
20
-18.45918
10
66.73976
20
-18.32990
10
62.03138
20
-18.14476
10
57.33694
20
-17.88144
10
52.65638
20
-17.51735
10
47.98874
20
-17.02942
10
43.32723
20
-16.39591
10
38.66397
20
-15.61172
10
34.00052
20
-14.67941
10
29.34565
20
-13.59079
10
24.70419
20
-12.31873
10
20.07596
20
-10.83246
10
15.46027
20
-9.09606
10
13.22799
20
-8.11310
10
11.01491
20
-6.99228
10
8.85886
20
-5.69492
10
6.71883
20
-4.08032
10
4.96970
20
-2.45856
10
4.14272
20
-1.61722
10
3.37913
20
-0.71091
10
3.09949
20
-0.28070
10
3.00683
20
-0.09157
10
3.00947
20
-0.09876
10
3.03422
20
-0.21093
10
3.05733
20
0.01915
10
2.96564
20
-0.21862
10
3.01635
20
-0.12232
10
3.20046
20
0.12978
10
3.77288
20
0.67693
10
4.26473
20
1.01203
10
5.65709
20
1.59690
10
7.73346
20
2.09573
10
9.99068
20
2.54344
10
12.24262
20
2.90175
10
14.48957
20
3.15987
10
19.14477
20
3.50048
10
23.83742
20
3.74692
10
28.53833
20
3.91515
10
33.24503
20
4.01118
10
37.95871
20
4.04537
10
42.67911
20
4.02775
10
47.40595
20
3.96808
10
52.13845
20
3.87576
10
56.87580
20
3.75842
10
61.61777
20
3.62311
10
66.36434
20
3.47698
10
71.11507
20
3.32718
10
75.86785
20
3.17976
10
80.62045
20
3.03532
10
85.37242
20
2.89286
10
90.12375
20
2.75143
10
94.87452
20
2.60998
10
99.62504
20
2.46774
10
104.37566
20
2.32466
10
109.12645
20
2.18108
10
113.87740
20
2.03721
10
118.62852
20
1.89333
10
123.37971
20
1.74969
10
128.13086
20
1.60627
10
132.88196
20
1.46298
10
137.63302
20
1.31975
10
142.38404
20
1.17654
10
147.13505
20
1.03326
10
151.88606
20
0.88994
10
156.63708
20
0.74658
10
161.38811
20
0.60319
10
166.13916
20
0.45981
10
170.89021
20
0.31643
10
175.64126
20
0.17308
10
180.39230
20
0.02973
10
185.14334
20
-0.11362
10
189.89438
20
-0.25697
10
194.64542
20
-0.40032
10
199.39646
20
-0.54368
10
204.14750
20
-0.68703
10
208.89854
20
-0.83038
10
213.64958
20
-0.97373
10
218.40062
20
-1.11708
10
223.15166
20
-1.26043
10
227.90270
20
-1.40378
10
230.27823
20
-1.47545
10
232.65374
20
-1.54711
10
235.02924
20
-1.61880
10
234.51424
20
-1.60326
0
CIRCLE
8
CUT
10
71.25000
20
-7.56506
40
7.25000
0
ENDSEC
0
EOF
