0
SECTION
2
HEADER
9
$INSUNITS
70
4
0
ENDSEC
0
SECTION
2
ENTITIES
0
LWPOLYLINE
8
CUT
90
103
70
1
10
203.20128
20
-0.14257
10
201.88263
20
-0.44995
10
197.40976
20
-1.47004
10
192.93699
20
-2.46723
10
188.46445
20
-3.44068
10
183.99209
20
-4.38966
10
179.51988
20
-5.31348
10
175.04768
20
-6.21153
10
170.57539
20
-7.08351
10
166.10299
20
-7.92913
10
161.63043
20
-8.74813
10
157.15779
20
-9.54032
10
152.68569
20
-10.30511
10
148.21478
20
-11.04027
10
143.74520
20
-11.74319
10
139.27690
20
-12.41130
10
134.80977
20
-13.04213
10
130.34319
20
-13.63345
10
125.87644
20
-14.18471
10
121.40930
20
-14.69576
10
116.94178
20
-15.16656
10
112.47400
20
-15.59694
10
108.00677
20
-15.98637
10
103.54112
20
-16.33215
10
99.07730
20
-16.63068
10
94.61527
20
-16.87847
10
90.15473
20
-17.07198
10
85.69362
20
-17.20848
10
81.22946
20
-17.29045
10
76.76157
20
-17.32242
10
72.28999
20
-17.30892
10
67.81561
20
-17.25446
10
63.34487
20
-17.16129
10
58.88551
20
-17.01516
10
54.43963
20
-16.79496
10
50.00705
20
-16.47934
10
45.58665
20
-16.04649
10
41.17155
20
-15.47586
10
36.75381
20
-14.76267
10
32.33501
20
-13.90930
10
27.92388
20
-12.90809
10
23.52509
20
-11.73343
10
19.13828
20
-10.35630
10
14.76256
20
-8.74279
10
12.64962
20
-7.82883
10
10.55509
20
-6.78523
10
8.51657
20
-5.57669
10
6.49227
20
-4.07009
10
4.83378
20
-2.55244
10
4.05198
20
-1.76741
10
3.33326
20
-0.92559
10
3.07631
20
-0.53591
10
3.04644
20
-0.47594
10
3.15227
20
-0.32903
10
3.67172
20
0.17404
10
4.11181
20
0.47811
10
5.40086
20
1.02954
10
7.34931
20
1.51115
10
9.47888
20
1.94804
10
11.60368
20
2.30040
10
13.72408
20
2.55805
10
18.12720
20
2.90920
10
22.56830
20
3.17159
10
27.01813
20
3.36000
10
31.47417
20
3.48010
10
35.93755
20
3.54170
10
40.40795
20
3.55426
10
44.88504
20
3.52705
10
49.36798
20
3.46895
10
53.85591
20
3.38717
10
58.34857
20
3.28840
10
62.84589
20
3.17940
10
67.34740
20
3.06694
10
71.85094
20
2.95676
10
76.35429
20
2.84938
10
80.85699
20
2.74389
10
85.35905
20
2.63936
10
89.86054
20
2.53482
10
94.36179
20
2.42953
10
98.86314
20
2.32344
10
103.36468
20
2.21687
10
107.86637
20
2.11004
10
112.36823
20
2.00319
10
116.87016
20
1.89658
10
121.37205
20
1.79016
10
125.87388
20
1.68388
10
130.37568
20
1.57765
10
134.87744
20
1.47144
10
139.37918
20
1.36516
10
143.88094
20
1.25884
10
148.38269
20
1.15250
10
152.88446
20
1.04611
10
157.38625
20
0.93974
10
161.88803
20
0.83337
10
166.38982
20
0.72702
10
170.89160
20
0.62068
10
175.39337
20
0.51433
10
179.89515
20
0.40799
10
184.39693
20
0.30164
10
188.89871
20
0.19530
10
193.40048
20
0.08895
10
197.90226
20
-0.01739
10
202.40404
20
-0.12374
0
CIRCLE
8
CUT
10
67.50000
20
-7.09221
40
7.25000
0
ENDSEC
0
EOF
