0
SECTION
2
HEADER
9
$INSUNITS
70
4
0
ENDSEC
0
SECTION
2
ENTITIES
0
LWPOLYLINE
8
CUT
90
121
70
1
10
215.69177
20
4.87604
10
215.81275
20
4.90680
10
213.63626
20
4.35442
10
211.46135
20
3.80489
10
209.28982
20
3.25992
10
204.94440
20
2.18516
10
200.60089
20
1.13474
10
196.25646
20
0.10703
10
191.91150
20
-0.89885
10
187.56657
20
-1.88248
10
183.22181
20
-2.84303
10
178.87716
20
-3.77977
10
174.53258
20
-4.69206
10
170.18794
20
-5.57929
10
165.84315
20
-6.44118
10
161.49816
20
-7.27745
10
157.15294
20
-8.08784
10
152.80757
20
-8.87217
10
148.46265
20
-9.62985
10
144.11885
20
-10.35871
10
139.77628
20
-11.05622
10
135.43490
20
-11.71989
10
131.09458
20
-12.34731
10
126.75469
20
-12.93631
10
122.41453
20
-13.48637
10
118.07387
20
-13.99735
10
113.73270
20
-14.46920
10
109.39117
20
-14.90177
10
105.05007
20
-15.29453
10
100.71042
20
-15.64484
10
96.37248
20
-15.94921
10
92.03618
20
-16.20425
10
87.70122
20
-16.40653
10
83.36553
20
-16.55339
10
79.02663
20
-16.64727
10
74.68386
20
-16.69256
10
70.33728
20
-16.69366
10
65.98778
20
-16.65496
10
61.64182
20
-16.57862
10
57.30708
20
-16.45077
10
52.98561
20
-16.25091
10
48.67718
20
-15.95829
10
44.38060
20
-15.55175
10
40.08892
20
-15.01136
10
35.79421
20
-14.33243
10
31.49805
20
-13.51732
10
27.20914
20
-12.55860
10
22.93210
20
-11.43144
10
18.66646
20
-10.10766
10
14.41125
20
-8.55439
10
12.35828
20
-7.67434
10
10.32336
20
-6.66873
10
8.34402
20
-5.50402
10
6.37807
20
-4.05082
10
4.76538
20
-2.58475
10
4.00644
20
-1.82764
10
3.31045
20
-1.01783
10
3.06505
20
-0.64830
10
2.98992
20
-0.49869
10
3.00244
20
-0.53172
10
3.03837
20
-0.68734
10
3.05129
20
-0.54475
10
2.95295
20
-0.80741
10
2.98454
20
-0.74596
10
3.12950
20
-0.54332
10
3.62269
20
-0.06256
10
4.03706
20
0.22576
10
5.27465
20
0.75996
10
7.15926
20
1.23234
10
9.22508
20
1.66321
10
11.28639
20
2.01197
10
13.34355
20
2.26878
10
17.62065
20
2.62397
10
21.93598
20
2.89310
10
26.26025
20
3.09037
10
30.59092
20
3.22127
10
34.92908
20
3.29534
10
39.27442
20
3.32177
10
43.62655
20
3.30957
10
47.98462
20
3.26735
10
52.34774
20
3.20213
10
56.71565
20
3.12040
10
61.08824
20
3.02874
10
65.46504
20
2.93373
10
69.84385
20
2.84093
10
74.22247
20
2.75087
10
78.60043
20
2.66263
10
82.97775
20
2.57533
10
87.35451
20
2.48802
10
91.73102
20
2.39997
10
96.10764
20
2.31115
10
100.48444
20
2.22187
10
104.86140
20
2.13232
10
109.23852
20
2.04277
10
113.61571
20
1.95344
10
117.99287
20
1.86430
10
122.36997
20
1.77530
10
126.74704
20
1.68634
10
131.12406
20
1.59740
10
135.50107
20
1.50840
10
139.87809
20
1.41935
10
144.25511
20
1.33029
10
148.63214
20
1.24118
10
153.00920
20
1.15209
10
157.38625
20
1.06300
10
161.76330
20
0.97393
10
166.14034
20
0.88486
10
170.51738
20
0.79579
10
174.89443
20
0.70672
10
179.27147
20
0.61766
10
183.64851
20
0.52859
10
188.02556
20
0.43952
10
192.40260
20
0.35045
10
196.77964
20
0.26139
10
201.15669
20
0.17232
10
205.53373
20
0.08325
10
209.91078
20
-0.00582
10
212.09931
20
-0.05034
10
214.28782
20
-0.09486
10
216.47632
20
-0.13941
10
215.77361
20
-0.12511
0
CIRCLE
8
CUT
10
65.62500
20
-6.85902
40
7.25000
0
ENDSEC
0
EOF
