0
SECTION
2
HEADER
9
$INSUNITS
70
4
0
ENDSEC
0
SECTION
2
ENTITIES
0
LWPOLYLINE
8
CUT
90
121
70
1
10
203.15870
20
5.72245
10
203.40376
20
5.78648
10
201.35523
20
5.25228
10
199.30825
20
4.72080
10
197.26463
20
4.19368
10
193.17495
20
3.15373
10
189.08707
20
2.13676
10
184.99813
20
1.14119
10
180.90856
20
0.16618
10
176.81889
20
-0.78783
10
172.72927
20
-1.72009
10
168.63965
20
-2.62990
10
164.54996
20
-3.51665
10
160.46009
20
-4.37978
10
156.36992
20
-5.21902
10
152.27943
20
-6.03411
10
148.18857
20
-6.82480
10
144.09742
20
-7.59092
10
140.00659
20
-8.33191
10
135.91672
20
-9.04572
10
131.82792
20
-9.72995
10
127.74012
20
-10.38226
10
123.65321
20
-11.00038
10
119.56653
20
-11.58229
10
115.47935
20
-12.12749
10
111.39149
20
-12.63585
10
107.30291
20
-13.10735
10
103.21376
20
-13.54182
10
99.12484
20
-13.93875
10
95.03714
20
-14.29567
10
90.95091
20
-14.60927
10
86.86606
20
-14.87636
10
82.78228
20
-15.09371
10
78.69748
20
-15.25885
10
74.60919
20
-15.37408
10
70.51678
20
-15.44354
10
66.42033
20
-15.47140
10
62.32075
20
-15.46175
10
58.22450
20
-15.41661
10
54.13922
20
-15.32288
10
50.06683
20
-15.16124
10
46.00699
20
-14.91219
10
41.95841
20
-14.55583
10
37.91404
20
-14.07345
10
33.86592
20
-13.46063
10
29.81563
20
-12.71960
10
25.77185
20
-11.84343
10
21.73907
20
-10.80881
10
17.71667
20
-9.58933
10
13.70352
20
-8.15411
10
11.77108
20
-7.34066
10
9.85606
20
-6.40985
10
7.99586
20
-5.33156
10
6.14759
20
-3.98397
10
4.62747
20
-2.62012
10
3.91476
20
-1.91837
10
3.26485
20
-1.17212
10
3.04293
20
-0.84263
10
2.97991
20
-0.71917
10
2.99928
20
-0.76932
10
3.04316
20
-0.95379
10
3.05023
20
-0.86962
10
2.94773
20
-1.14895
10
2.96695
20
-1.11095
10
3.08636
20
-0.94170
10
3.52749
20
-0.50601
10
3.89074
20
-0.24972
10
5.02578
20
0.24906
10
6.78296
20
0.70174
10
8.72150
20
1.11932
10
10.65595
20
1.45966
10
12.58673
20
1.71353
10
16.61186
20
2.07434
10
20.67567
20
2.35449
10
24.74878
20
2.56703
10
28.82865
20
2.71708
10
32.91631
20
2.81364
10
37.01138
20
2.86535
10
41.11346
20
2.88069
10
45.22162
20
2.86779
10
49.33497
20
2.83323
10
53.45318
20
2.78313
10
57.57613
20
2.72370
10
61.70330
20
2.66113
10
65.83248
20
2.60065
10
69.96145
20
2.54276
10
74.08975
20
2.48658
10
78.21741
20
2.43128
10
82.34450
20
2.37597
10
86.47135
20
2.31996
10
90.59831
20
2.26322
10
94.72545
20
2.20606
10
98.85276
20
2.14864
10
102.98023
20
2.09122
10
107.10777
20
2.03400
10
111.23527
20
1.97697
10
115.36272
20
1.92007
10
119.49013
20
1.86320
10
123.61750
20
1.80636
10
127.74484
20
1.74946
10
131.87221
20
1.69251
10
135.99957
20
1.63555
10
140.12696
20
1.57854
10
144.25435
20
1.52155
10
148.38175
20
1.46457
10
152.50914
20
1.40760
10
156.63653
20
1.35064
10
160.76392
20
1.29367
10
164.89131
20
1.23670
10
169.01869
20
1.17974
10
173.14608
20
1.12277
10
177.27347
20
1.06581
10
181.40086
20
1.00884
10
185.52824
20
0.95187
10
189.65563
20
0.89491
10
193.78302
20
0.83794
10
197.91041
20
0.78098
10
199.97412
20
0.75250
10
202.03779
20
0.72403
10
204.10147
20
0.69554
10
203.27361
20
0.70697
0
CIRCLE
8
CUT
10
61.87500
20
-6.39904
40
7.25000
0
ENDSEC
0
EOF
