0
SECTION
2
HEADER
9
$INSUNITS
70
4
0
ENDSEC
0
SECTION
2
ENTITIES
0
LWPOLYLINE
8
CUT
90
104
70
1
10
228.39841
20
-2.05888
10
224.36426
20
-2.94375
10
219.37843
20
-4.01236
10
214.39299
20
-5.05554
10
209.40808
20
-6.07236
10
204.42369
20
-7.06199
10
199.43976
20
-8.02366
10
194.45620
20
-8.95671
10
189.47288
20
-9.86079
10
184.48979
20
-10.73557
10
179.50690
20
-11.58076
10
174.52427
20
-12.39617
10
169.54254
20
-13.18114
10
164.56239
20
-13.93322
10
159.58399
20
-14.64951
10
154.60733
20
-15.32716
10
149.63233
20
-15.96341
10
144.65839
20
-16.55576
10
139.68480
20
-17.10357
10
134.71136
20
-17.60669
10
129.73806
20
-18.06505
10
124.76502
20
-18.47849
10
119.79308
20
-18.84641
10
114.82329
20
-19.16584
10
109.85594
20
-19.43279
10
104.89105
20
-19.64335
10
99.92836
20
-19.79359
10
94.96585
20
-19.88044
10
90.00100
20
-19.90660
10
85.03307
20
-19.87712
10
80.06205
20
-19.79704
10
75.08877
20
-19.67139
10
70.11963
20
-19.50273
10
65.16257
20
-19.27530
10
60.21995
20
-18.96560
10
55.29188
20
-18.54979
10
50.37752
20
-18.00354
10
45.47027
20
-17.30389
10
40.56224
20
-16.44547
10
35.65499
20
-15.43097
10
30.75734
20
-14.25172
10
25.87431
20
-12.87902
10
21.00590
20
-11.28041
10
16.15168
20
-9.41791
10
13.80088
20
-8.36433
10
11.47018
20
-7.16472
10
9.19766
20
-5.77694
10
6.94326
20
-4.05277
10
5.10477
20
-2.32565
10
4.23332
20
-1.42738
10
3.42568
20
-0.45595
10
3.12385
20
0.01509
10
3.03787
20
0.19355
10
3.05607
20
0.36352
10
3.25251
20
0.62885
10
3.87850
20
1.21940
10
4.42253
20
1.58487
10
5.91870
20
2.20185
10
8.12328
20
2.71625
10
10.50838
20
3.17311
10
12.88762
20
3.53573
10
15.26121
20
3.79267
10
20.16854
20
4.11945
10
25.11270
20
4.34666
10
30.06462
20
4.49143
10
35.02185
20
4.56011
10
39.98565
20
4.56364
10
44.95583
20
4.51255
10
49.93218
20
4.41715
10
54.91397
20
4.28735
10
59.90045
20
4.13117
10
64.89143
20
3.95606
10
69.88694
20
3.76953
10
74.88660
20
3.57912
10
79.88831
20
3.39120
10
84.88986
20
3.20642
10
89.89080
20
3.02374
10
94.89110
20
2.84213
10
99.89084
20
2.66051
10
104.89033
20
2.47806
10
109.88991
20
2.29472
10
114.88966
20
2.11085
10
119.88957
20
1.92668
10
124.88964
20
1.74251
10
129.88979
20
1.55858
10
134.88990
20
1.37487
10
139.88996
20
1.19132
10
144.88998
20
1.00782
10
149.88997
20
0.82434
10
154.88993
20
0.64079
10
159.88991
20
0.45720
10
164.88988
20
0.27357
10
169.88988
20
0.08990
10
174.88988
20
-0.09375
10
179.88989
20
-0.27740
10
184.88990
20
-0.46103
10
189.88990
20
-0.64465
10
194.88990
20
-0.82828
10
199.88990
20
-1.01190
10
204.88990
20
-1.19553
10
209.88990
20
-1.37915
10
214.88990
20
-1.56278
10
219.88990
20
-1.74640
10
224.88990
20
-1.93003
0
CIRCLE
8
CUT
10
75.00000
20
-8.04656
40
7.25000
0
ENDSEC
0
EOF
