0
SECTION
2
HEADER
9
$INSUNITS
70
4
0
ENDSEC
0
SECTION
2
ENTITIES
0
LWPOLYLINE
8
CUT
90
104
70
1
10
209.50268
20
-0.57512
10
207.50662
20
-1.03353
10
202.90571
20
-2.06699
10
198.30496
20
-3.07692
10
193.70452
20
-4.06246
10
189.10433
20
-5.02284
10
184.50435
20
-5.95736
10
179.90448
20
-6.86540
10
175.30459
20
-7.74664
10
170.70467
20
-8.60079
10
166.10467
20
-9.42758
10
161.50467
20
-10.22682
10
156.90528
20
-10.99789
10
152.30719
20
-11.73851
10
147.71051
20
-12.44601
10
143.11522
20
-13.11774
10
138.52122
20
-13.75117
10
133.92787
20
-14.34398
10
129.33448
20
-14.89561
10
124.74083
20
-15.40591
10
120.14691
20
-15.87484
10
115.55285
20
-16.30222
10
110.95947
20
-16.68750
10
106.36780
20
-17.02793
10
101.77810
20
-17.31979
10
97.19033
20
-17.55950
10
92.60423
20
-17.74343
10
88.01773
20
-17.86874
10
83.42833
20
-17.93799
10
78.83536
20
-17.95582
10
74.23883
20
-17.92690
10
69.63963
20
-17.85588
10
65.04419
20
-17.74506
10
60.46028
20
-17.57983
10
55.89007
20
-17.33848
10
51.33345
20
-16.99903
10
46.78936
20
-16.53905
10
42.25098
20
-15.93739
10
37.71039
20
-15.18910
10
33.16916
20
-14.29667
10
28.63604
20
-13.25216
10
24.11578
20
-12.02920
10
19.60811
20
-10.59791
10
15.11222
20
-8.92335
10
12.93951
20
-7.97509
10
10.78559
20
-6.89308
10
8.68817
20
-5.64033
10
6.60584
20
-4.07993
10
4.90187
20
-2.51038
10
4.09739
20
-1.69727
10
3.35614
20
-0.82328
10
3.08778
20
-0.41338
10
3.04107
20
-0.31884
10
3.04424
20
-0.28618
10
3.17590
20
-0.10466
10
3.72176
20
0.42053
10
4.18768
20
0.74021
10
5.52833
20
1.30852
10
7.54070
20
1.79895
10
9.73406
20
2.24145
10
11.92241
20
2.59699
10
14.10607
20
2.85509
10
18.63522
20
3.20138
10
23.20210
20
3.45620
10
27.77749
20
3.63493
10
32.35887
20
3.74340
10
36.94742
20
3.79171
10
41.54284
20
3.78959
10
46.14484
20
3.74655
10
50.75259
20
3.67176
10
55.36526
20
3.57260
10
59.98261
20
3.45598
10
64.60459
20
3.32882
10
69.23075
20
3.19810
10
73.85894
20
3.06970
10
78.48695
20
2.94420
10
83.11433
20
2.82064
10
87.74106
20
2.69806
10
92.36722
20
2.57548
10
96.99314
20
2.45212
10
101.61916
20
2.32794
10
106.24536
20
2.20328
10
110.87172
20
2.07833
10
115.49825
20
1.95338
10
120.12484
20
1.82866
10
124.75139
20
1.70415
10
129.37790
20
1.57978
10
134.00436
20
1.45545
10
138.63079
20
1.33115
10
143.25720
20
1.20678
10
147.88362
20
1.08237
10
152.51004
20
0.95793
10
157.13648
20
0.83344
10
161.76293
20
0.70898
10
166.38939
20
0.58452
10
171.01584
20
0.46008
10
175.64228
20
0.33564
10
180.26873
20
0.21120
10
184.89517
20
0.08676
10
189.52162
20
-0.03768
10
194.14806
20
-0.16212
10
198.77451
20
-0.28656
10
203.40095
20
-0.41100
10
208.02739
20
-0.53544
0
CIRCLE
8
CUT
10
69.37500
20
-7.32756
40
7.25000
0
ENDSEC
0
EOF
