0
SECTION
2
HEADER
9
$INSUNITS
70
4
0
ENDSEC
0
SECTION
2
ENTITIES
0
LWPOLYLINE
8
CUT
90
99
70
1
10
177.95788
20
1.27770
10
175.40412
20
0.66001
10
171.44188
20
-0.27796
10
167.47962
20
-1.19483
10
163.51730
20
-2.08994
10
159.55486
20
-2.96269
10
155.59218
20
-3.81253
10
151.62914
20
-4.63921
10
147.66572
20
-5.44247
10
143.70188
20
-6.22207
10
139.73768
20
-6.97786
10
135.77374
20
-7.70928
10
131.81069
20
-8.41432
10
127.84864
20
-9.09068
10
123.88751
20
-9.73607
10
119.92718
20
-10.34831
10
115.96699
20
-10.92543
10
112.00622
20
-11.46697
10
108.04466
20
-11.97280
10
104.08231
20
-12.44288
10
100.11928
20
-12.87707
10
96.15640
20
-13.27486
10
92.19464
20
-13.63385
10
88.23424
20
-13.95084
10
84.27510
20
-14.22272
10
80.31691
20
-14.44638
10
76.35757
20
-14.61943
10
72.39463
20
-14.74410
10
68.42744
20
-14.82443
10
64.45611
20
-14.86443
10
60.48156
20
-14.86809
10
56.51026
20
-14.83732
10
52.54980
20
-14.75941
10
48.60206
20
-14.61566
10
44.66666
20
-14.38717
10
40.74226
20
-14.05468
10
36.82176
20
-13.60008
10
32.89718
20
-13.01910
10
28.97012
20
-12.31389
10
25.04925
20
-11.47776
10
21.13897
20
-10.48820
10
17.23864
20
-9.31965
10
13.34702
20
-7.94224
10
11.47515
20
-7.16149
10
9.62041
20
-6.26747
10
7.82016
20
-5.23180
10
6.03123
20
-3.93641
10
4.55787
20
-2.62318
10
3.86853
20
-1.94888
10
3.24196
20
-1.23416
10
3.12713
20
-1.06488
10
3.48122
20
-0.71287
10
3.81908
20
-0.47283
10
4.90304
20
0.00774
10
6.59663
20
0.44996
10
8.47163
20
0.86027
10
10.34273
20
1.19578
10
12.21037
20
1.44757
10
16.10955
20
1.80995
10
20.04761
20
2.09439
10
23.99515
20
2.31333
10
27.94959
20
2.47173
10
31.91195
20
2.57830
10
35.88185
20
2.64143
10
39.85883
20
2.66932
10
43.84197
20
2.66984
10
47.83035
20
2.64938
10
51.82364
20
2.61388
10
55.82168
20
2.56933
10
59.82395
20
2.52175
10
63.82822
20
2.47621
10
67.83228
20
2.43317
10
71.83567
20
2.39180
10
75.83841
20
2.35127
10
79.84058
20
2.31073
10
83.84251
20
2.26952
10
87.84456
20
2.22760
10
91.84680
20
2.18526
10
95.84919
20
2.14268
10
99.85175
20
2.10010
10
103.85438
20
2.05771
10
107.85697
20
2.01551
10
111.85950
20
1.97343
10
115.86199
20
1.93139
10
119.86445
20
1.88936
10
123.86689
20
1.84728
10
127.86934
20
1.80516
10
131.87179
20
1.76302
10
135.87426
20
1.72084
10
139.87674
20
1.67868
10
143.87922
20
1.63651
10
147.88171
20
1.59437
10
151.88418
20
1.55223
10
155.88665
20
1.51009
10
159.88913
20
1.46795
10
163.89160
20
1.42580
10
167.89408
20
1.38366
10
171.89655
20
1.34152
10
175.89903
20
1.29938
0
CIRCLE
8
CUT
10
60.00000
20
-6.17225
40
7.25000
0
ENDSEC
0
EOF
